<svg id="SvgjsSvg1027" width="288" height="288" xmlns="http://www.w3.org/2000/svg" version="1.1" xmlnsXlink="http://www.w3.org/1999/xlink" xmlnsSvgjs="http://svgjs.com/svgjs"><circle id="SvgjsCircle1034" r="144" cx="144" cy="144" transform="matrix(0.7916,0,0,0.7916,30.009600000000006,30.009600000000006)" fill="#509ce2"></circle><defs id="SvgjsDefs1028"></defs><g id="SvgjsG1029" transform="matrix(0.4652,0,0,0.4652,77.0112,77.0112)"><svg xmlns="http://www.w3.org/2000/svg" viewBox="0 0 32 32" width="288" height="288"><path fill="#ffffff" d="M16,14.81,28.78,6.6A3,3,0,0,0,27,6H5a3,3,0,0,0-1.78.6Z" class="color231f20 svgShape"></path><path fill="#ffffff" d="M16.54,16.84h0l-.17.08-.08,0A1,1,0,0,1,16,17h0a1,1,0,0,1-.25,0l-.08,0-.17-.08h0L2.1,8.26A3,3,0,0,0,2,9V23a3,3,0,0,0,3,3H27a3,3,0,0,0,3-3V9a3,3,0,0,0-.1-.74Z" class="color231f20 svgShape"></path></svg></g></svg>