<?xml version="1.0" encoding="UTF-8"?>
<!DOCTYPE svg PUBLIC "-//W3C//DTD SVG 1.1//EN" "http://www.w3.org/Graphics/SVG/1.1/DTD/svg11.dtd">
<!-- Creator: CorelDRAW X7 -->
<svg xmlns="http://www.w3.org/2000/svg" xml:space="preserve" width="8.5in" height="11in" version="1.1" style="shape-rendering:geometricPrecision; text-rendering:geometricPrecision; image-rendering:optimizeQuality; fill-rule:evenodd; clip-rule:evenodd"
viewBox="0 0 8500 11000"
 xmlns:xlink="http://www.w3.org/1999/xlink">
 <defs>
  <style type="text/css">
   <![CDATA[
    .fil2 {fill:none}
    .fil1 {fill:#373435}
    .fil0 {fill:url(#id0)}
   ]]>
  </style>
  <radialGradient id="id0" gradientUnits="userSpaceOnUse" gradientTransform="matrix(-0.803717 -2.29438 -3.44259 0.778325 31078 10012)" cx="3677.59" cy="7100.54" r="4333.3" fx="3677.59" fy="7100.54">
   <stop offset="0" style="stop-opacity:1; stop-color:#923F95"/>
   <stop offset="0.290196" style="stop-opacity:1; stop-color:#55509F"/>
   <stop offset="1" style="stop-opacity:1; stop-color:#00BAE2"/>
  </radialGradient>
 </defs>
 <g id="Layer_x0020_1">
  <metadata id="CorelCorpID_0Corel-Layer"/>
  <g id="_1599710528">
   <path class="fil0" d="M4043 4826c-42,24 -95,9 -119,-33 -25,-41 -10,-95 32,-119l480 -278c157,-72 343,-20 440,123l309 537c140,242 168,519 101,771 -68,252 -231,478 -473,618 -242,140 -520,168 -771,100 -252,-67 -478,-230 -618,-472l-785 -1360c-25,-42 -10,-96 32,-120 42,-24 95,-10 120,32l785 1360c116,200 303,335 511,391 209,56 438,33 638,-83 201,-116 336,-303 391,-511 56,-209 33,-438 -83,-639l-297 -515c-46,-79 -145,-110 -227,-71l-466 269zm-539 -219c-24,-42 -10,-96 32,-119 42,-24 96,-10 120,32l605 1070 0 -1c7,12 18,19 31,23 13,3 27,2 38,-4 11,-7 19,-18 22,-31 4,-13 3,-27 -4,-38l-168 -292c-24,-42 -10,-96 32,-120 42,-24 95,-10 120,32l168 292c31,53 37,115 22,171 -15,56 -51,107 -104,138 -54,31 -116,36 -172,21 -56,-15 -106,-51 -137,-104l0 0 0 -1 -605 -1069zm-682 -632c-24,-42 -10,-96 32,-120 42,-24 96,-10 120,32l1059 1834c43,75 113,125 191,146 78,21 163,12 238,-31 74,-43 124,-113 145,-191 21,-78 13,-164 -30,-238l-175 -302c-24,-42 -10,-96 32,-120 42,-24 96,-10 120,32l175 302c67,117 80,250 48,372 -33,121 -111,230 -228,297 -116,67 -249,81 -371,48 -121,-32 -230,-111 -297,-227l-1059 -1834zm-99 357c-24,-42 -10,-96 32,-120 42,-24 96,-10 120,32l929 1609c80,137 208,230 351,268 144,39 301,23 439,-56 137,-80 229,-208 268,-352 38,-143 22,-300 -57,-438l-253 -439 -382 221c-42,24 -96,10 -120,-32 -24,-42 -10,-96 32,-120l458 -265c42,-24 95,-9 120,33l297 515c104,179 124,384 74,571 -50,186 -170,354 -350,458 -179,103 -384,124 -571,74 -187,-50 -354,-171 -458,-350l-929 -1609z"/>
   <path class="fil1" d="M3077 7021c0,47 -14,82 -43,103 -25,19 -61,29 -110,29l-18 0c-49,0 -86,-10 -111,-29 -28,-21 -42,-56 -42,-103l0 -161 51 0 0 161c0,35 12,59 36,70 16,7 44,11 84,11 33,0 57,-5 73,-15 19,-13 29,-35 29,-66l0 -161 51 0 0 161zm211 9l-159 0 0 -50 159 0 0 50zm379 32c0,28 -10,50 -29,67 -19,16 -43,24 -71,24l-223 0 0 -51 223 0c14,0 26,-3 36,-10 12,-7 18,-18 18,-31 0,-13 -6,-23 -18,-30 -10,-6 -22,-9 -36,-9l-138 0c-25,0 -47,-7 -64,-21 -18,-16 -27,-36 -27,-60 0,-25 9,-45 27,-60 17,-14 39,-21 64,-21l221 0 0 51 -221 0c-10,0 -18,3 -25,8 -7,6 -10,13 -10,22 0,9 3,17 10,22 7,5 15,8 25,8l138 0c28,0 52,8 71,24 19,17 29,40 29,67zm482 91l-58 0 -42 -205 -98 189c-7,13 -16,20 -28,20 -13,0 -23,-7 -30,-20l-98 -189 -42 205 -58 0 66 -269c1,-7 5,-14 11,-20 6,-5 13,-8 20,-8 12,0 22,9 32,28l98 192 98 -192c10,-19 21,-28 32,-28 7,0 14,3 20,9 6,5 10,12 12,19l65 269zm431 0l-66 -1 -49 -82 -139 0 31 -50 78 0 -51 -85 -132 217 -66 0 159 -264c4,-7 10,-13 17,-19 8,-7 16,-10 23,-10 7,0 15,3 23,10 7,5 12,11 17,19l155 265zm368 0l-76 0 -82 -83 -110 0 0 -50 137 0c19,0 35,-4 48,-13 15,-9 22,-23 22,-41 0,-37 -23,-55 -70,-55l-167 0 0 242 -51 0 0 -293 210 0c38,0 68,8 92,24 26,19 39,46 39,82 0,25 -7,46 -23,64 -14,16 -33,28 -58,34l89 89zm311 -242l-115 0 0 242 -51 0 0 -242 -116 0 0 -51 282 0 0 51zm85 217c0,8 -2,14 -7,19 -5,5 -11,7 -19,7 -7,0 -14,-2 -19,-7 -5,-5 -7,-11 -7,-19 0,-8 2,-14 7,-19 5,-4 12,-7 19,-7 8,0 14,3 19,7 5,5 7,11 7,19zm446 25l-66 -1 -49 -82 -139 0 31 -50 77 0 -51 -85 -132 217 -65 0 159 -264c4,-7 9,-13 16,-19 9,-7 17,-10 23,-10 8,0 16,3 24,10 6,5 12,11 16,19l156 265zm83 0l-51 0 0 -293 51 0 0 293z"/>
  </g>
  <rect class="fil2" x="1601" y="2851" width="5298" height="5298"/>
 </g>
</svg>
